<svg version="1.1" id="Layer_1" xmlns="http://www.w3.org/2000/svg" xmlns:xlink="http://www.w3.org/1999/xlink" x="0px" y="0px"
	 width="100%" viewBox="0 0 1591 401" enable-background="new 0 0 1591 401" xml:space="preserve">
<path fill="#011233" opacity="1.000000" stroke="none" 
	d="
M1076.000000,402.000000 
	C717.378235,402.000000 359.256500,402.000000 1.067376,402.000000 
	C1.067376,268.395050 1.067376,134.790039 1.067376,1.092520 
	C531.333313,1.092520 1061.666626,1.092520 1591.967529,1.092520 
	C1591.967529,134.743591 1591.967529,268.371796 1591.967529,402.000000 
	C1420.123291,402.000000 1248.311646,402.000000 1076.000000,402.000000 
M520.238586,161.809692 
	C520.238586,161.809692 520.134583,161.768692 520.133911,161.278946 
	C519.822083,160.936646 519.510254,160.594345 518.923340,159.596298 
	C508.045013,145.427155 493.049133,137.683563 476.477844,132.400253 
	C458.332031,126.614967 440.058746,121.194534 422.086151,114.913689 
	C411.209808,111.112755 409.201416,106.901283 410.286133,95.063934 
	C413.144775,92.191566 415.573029,88.611053 418.935394,86.567490 
	C434.823792,76.910851 451.140228,78.041023 467.270386,86.015274 
	C481.708405,93.152992 492.541260,104.039116 499.241699,118.766365 
	C500.557678,121.658813 502.555450,122.677605 505.084442,121.645523 
	C506.341888,121.132362 506.920349,118.955353 507.968384,116.553398 
	C505.555267,93.707260 503.142181,70.861122 500.579834,46.602085 
	C490.464508,53.801235 480.687531,54.102032 470.863647,52.973644 
	C463.121124,52.084328 455.519653,49.984875 447.779785,49.050686 
	C429.684235,46.866585 411.594238,46.243000 393.898285,51.897625 
	C378.689026,56.757648 365.349670,64.384659 355.664551,77.583069 
	C347.109375,89.241646 344.966278,102.757568 343.871399,116.599838 
	C343.630341,119.647850 344.045654,122.747780 344.271027,126.680031 
	C344.775330,136.102448 348.534729,144.263504 353.705627,151.991425 
	C362.611481,165.301270 376.449402,170.906998 390.646637,175.870026 
	C407.554871,181.780762 424.734833,186.951385 441.473022,193.297302 
	C451.072205,196.936630 460.684479,201.612106 462.066101,214.586273 
	C460.407043,225.629105 453.732544,232.661453 443.594055,236.167679 
	C426.497650,242.080124 409.131927,242.182571 392.290833,235.476715 
	C366.417938,225.174530 351.481842,205.540283 345.624298,178.575836 
	C345.330963,177.225433 343.340546,175.123169 342.443481,175.266617 
	C340.772491,175.533844 339.324829,177.197815 337.680176,178.777527 
	C337.570129,183.063065 337.119415,187.371857 337.410034,191.630051 
	C338.561890,208.505768 339.904144,225.368973 341.260620,242.230011 
	C341.964264,250.976334 342.845306,259.708405 343.613098,269.193451 
	C344.453491,272.362793 346.298218,270.979401 347.637329,269.863861 
	C354.428558,264.206451 361.999268,264.245361 370.227356,265.754181 
	C383.755066,268.234772 397.348724,271.209839 411.014648,271.854523 
	C426.196106,272.570740 441.553833,271.576141 456.718506,270.117371 
	C476.245270,268.238983 494.254852,261.703796 509.075378,248.252197 
	C518.302368,239.877518 524.059265,229.436737 526.584595,216.572098 
	C527.558777,212.320480 529.088684,208.108688 529.396790,203.809357 
	C530.142395,193.405273 530.673157,182.921219 526.196472,172.924271 
	C526.196472,172.924271 526.086182,172.834686 526.162170,172.271362 
	C525.838989,171.844360 525.515869,171.417358 525.212769,170.874283 
	C525.212769,170.874283 525.099060,170.843521 525.112183,170.192856 
	C524.470825,169.124313 523.829468,168.055771 523.217529,166.875580 
	C523.217529,166.875580 523.109192,166.835556 523.137451,166.276001 
	C522.830322,165.846954 522.523193,165.417908 522.242188,164.846329 
	C522.242188,164.846329 522.102478,164.807709 522.104858,164.300644 
	C521.793640,163.936478 521.482422,163.572296 521.138672,162.939575 
	C521.138672,162.939575 520.916016,162.785995 520.886841,162.357605 
	C520.774780,162.037003 520.549255,161.890427 520.238586,161.809692 
M1008.486206,83.469383 
	C1008.591187,82.576157 1008.696167,81.682930 1008.985413,80.091560 
	C1010.408020,74.475731 1013.286865,69.991615 1019.319885,68.825912 
	C1024.388550,67.846558 1025.239014,65.041328 1024.067261,59.799728 
	C1024.197876,53.477955 1024.104492,53.330677 1017.811584,53.326321 
	C989.067749,53.306408 960.323914,53.315437 931.580078,53.318516 
	C924.273804,53.319298 924.273804,53.326797 924.004395,61.714222 
	C923.461853,64.989792 923.886536,67.812607 927.033569,69.809616 
	C928.015259,70.432571 928.510132,71.822769 928.954590,73.571106 
	C920.571472,90.848679 912.188354,108.126244 903.805298,125.403809 
	C903.272827,125.283562 902.740356,125.163315 902.207886,125.043068 
	C901.130920,122.855484 899.980530,120.700623 898.988953,118.474998 
	C892.591125,104.113770 886.227966,89.737122 879.924438,74.935905 
	C881.052490,73.175690 881.798584,70.832710 883.394653,69.786476 
	C886.052612,68.044235 887.511658,66.242996 887.098267,62.966610 
	C886.869690,61.154682 887.143066,59.279427 886.908325,56.199005 
	C885.676758,52.397781 882.426941,53.360058 879.773071,53.355160 
	C848.973267,53.298328 818.173340,53.314632 787.373413,53.321930 
	C780.712585,53.323505 780.712585,53.342506 780.333069,60.900600 
	C779.382874,65.505569 780.499451,68.311974 785.834167,69.156509 
	C790.506042,69.896103 793.269165,73.625710 794.309998,78.067696 
	C795.321533,82.383919 796.150452,86.863647 796.164368,91.274406 
	C796.316711,139.436768 796.293213,187.599701 796.061279,236.539108 
	C794.667297,242.722763 793.457153,249.344177 786.005249,250.919556 
	C781.131897,251.949814 780.081360,254.570374 780.248962,259.457428 
	C780.232178,266.711151 780.232178,266.719452 787.611450,266.722229 
	C803.853333,266.728271 820.095215,266.732880 836.337097,266.722046 
	C843.384338,266.717346 843.694336,266.352386 843.018188,258.491089 
	C843.749573,254.449738 842.692627,251.941010 838.091309,251.126907 
	C830.020691,249.698929 827.473022,243.243713 826.060425,236.317230 
	C825.301025,232.593872 825.034241,228.713699 825.023743,224.902954 
	C824.942749,195.578110 824.997620,166.252930 824.967590,136.927887 
	C824.959045,128.607727 824.809326,120.287697 824.843262,111.372543 
	C825.220642,110.469963 825.597961,109.567383 826.286377,107.920815 
	C845.115051,147.715652 863.517456,186.609558 882.477905,226.682831 
	C885.104492,221.578979 887.151062,217.814438 889.008911,213.958908 
	C905.372437,179.998978 921.680847,146.012421 938.108459,112.083549 
	C938.896362,110.456100 940.647827,109.295143 941.819885,108.868576 
	C941.888672,148.848221 941.957458,188.827881 941.778259,229.608124 
	C941.456909,232.081070 941.371460,234.613235 940.768433,237.015472 
	C939.197327,243.274124 937.227783,249.569366 929.794861,251.012177 
	C924.924805,251.957489 923.488525,254.506302 924.049316,259.652100 
	C923.639160,266.327789 923.930969,266.710358 930.185364,266.714233 
	C959.430725,266.732361 988.676086,266.732452 1017.921448,266.715424 
	C1024.393188,266.711670 1024.833130,266.128998 1024.083374,258.452698 
	C1024.813354,254.442581 1023.813416,251.842331 1019.198364,251.143311 
	C1014.718445,250.464767 1011.885437,247.297134 1010.433228,243.193359 
	C1009.119873,239.482117 1008.326416,235.586884 1007.390503,230.896561 
	C1007.365845,183.473022 1007.341187,136.049469 1007.713928,87.734764 
	C1007.745850,87.088097 1007.777710,86.441429 1008.005432,85.224602 
	C1007.999695,84.825058 1007.993896,84.425507 1008.040100,84.005424 
	C1008.040100,84.005424 1008.012146,83.957039 1008.486206,83.469383 
M1153.080322,84.843056 
	C1153.362549,86.967972 1153.882935,89.092064 1153.890381,91.217926 
	C1153.963867,112.357368 1153.935669,133.497147 1153.969604,154.636765 
	C1154.008911,179.102554 1154.081543,203.568283 1153.991211,228.902695 
	C1153.970337,230.230621 1154.137329,231.593521 1153.897827,232.880737 
	C1152.465698,240.574814 1151.637207,248.956635 1142.127075,251.137650 
	C1137.290527,252.246811 1136.465332,254.810577 1136.987915,259.770386 
	C1136.604126,266.535522 1136.752930,266.714355 1143.693970,266.716705 
	C1172.273560,266.726440 1200.853271,266.723236 1229.432861,266.716949 
	C1236.351074,266.715424 1236.351074,266.701691 1236.272217,258.550354 
	C1236.695801,254.528809 1235.824707,251.892746 1231.033936,250.973114 
	C1225.071533,249.828552 1222.093750,245.176331 1220.775513,239.498688 
	C1220.108398,236.625092 1219.658203,233.701157 1219.166504,229.892471 
	C1219.125366,211.088531 1219.084229,192.284607 1219.531494,173.017380 
	C1229.363770,168.461380 1229.375122,168.484314 1235.497681,177.207153 
	C1239.500977,182.910721 1243.800293,188.419312 1247.574097,194.268723 
	C1258.000977,210.431137 1268.685181,226.496475 1272.718384,246.260590 
	C1270.161377,248.031693 1267.813965,250.729187 1265.000244,251.365952 
	C1260.284668,252.433090 1259.666382,254.797165 1260.361206,259.148956 
	C1259.627563,266.279907 1259.973511,266.713654 1266.817261,266.716095 
	C1297.885864,266.727142 1328.954468,266.746033 1360.022827,266.663635 
	C1362.054199,266.658234 1364.083496,265.829315 1366.676514,264.575836 
	C1366.636230,261.436707 1366.868652,258.258179 1366.423828,255.177460 
	C1366.240234,253.906250 1364.790039,252.107101 1363.596802,251.803864 
	C1353.159790,249.151489 1348.192749,241.413544 1344.951538,232.119583 
	C1338.609009,213.932541 1332.148071,195.724945 1321.565430,179.529251 
	C1313.516357,167.210785 1304.270142,155.674484 1295.981689,143.438721 
	C1297.683228,142.420273 1299.415161,141.449142 1301.081299,140.375824 
	C1312.729980,132.871826 1323.565308,124.448036 1330.092407,111.834999 
	C1333.087769,106.046814 1334.945435,99.781570 1334.013672,92.325974 
	C1337.915649,80.666214 1331.106079,66.678795 1321.567993,61.647156 
	C1309.869629,55.476009 1297.378784,53.388313 1284.452271,53.359379 
	C1237.804443,53.254951 1191.156128,53.316059 1144.508057,53.318905 
	C1136.928223,53.319370 1136.906372,53.351654 1136.956787,61.664177 
	C1136.504395,65.199760 1136.520142,67.999268 1141.375854,68.661003 
	C1145.538940,69.228371 1149.042847,71.595177 1150.428101,76.096611 
	C1151.246338,78.755760 1152.207642,81.370911 1153.080322,84.843056 
M1121.747192,159.214233 
	C1121.720703,158.987091 1121.715454,158.860779 1121.550537,157.900864 
	C1119.969604,155.561874 1118.175781,155.497360 1116.184082,157.385941 
	C1111.548828,161.780991 1105.860229,163.146484 1099.683716,163.137634 
	C1091.201050,163.125473 1082.718262,163.144287 1074.235596,163.133240 
	C1068.281372,163.125488 1062.075317,163.801880 1058.726074,156.637924 
	C1057.563110,158.133987 1056.773926,158.814285 1056.404053,159.674713 
	C1049.980347,174.621323 1043.559326,189.569809 1037.313110,204.590820 
	C1036.789062,205.851105 1037.515991,207.631577 1037.299683,209.834335 
	C1037.468750,211.720062 1037.637817,213.605804 1037.806763,215.491547 
	C1039.678833,215.035233 1041.627563,214.774750 1043.405884,214.078918 
	C1046.443848,212.890244 1049.313477,210.446121 1052.362061,210.254898 
	C1064.391113,209.500381 1076.465820,209.130341 1088.515503,209.277740 
	C1091.697266,209.316650 1094.850098,211.720276 1098.169312,213.731766 
	C1100.355225,216.269012 1101.503052,214.775040 1102.425293,212.609131 
	C1108.780884,197.683533 1115.197388,182.782852 1121.358276,167.777176 
	C1121.958862,166.314102 1120.958862,164.193863 1121.355835,160.802917 
	C1121.472412,160.246292 1121.588867,159.689651 1121.747192,159.214233 
M629.328613,190.649506 
	C630.234680,190.765457 631.140808,190.881409 632.726196,191.238724 
	C634.276489,191.817276 635.810425,192.445068 637.379639,192.966705 
	C651.295288,197.592438 663.867615,204.426697 672.982483,216.220734 
	C676.539917,220.823837 679.013306,226.264694 681.803162,232.172043 
	C682.371277,243.278076 679.827087,247.887207 670.359436,250.677612 
	C665.635559,252.069870 664.242188,254.491913 664.971191,259.609558 
	C664.477356,266.509277 664.634705,266.713318 671.441406,266.715698 
	C703.331421,266.726837 735.221436,266.723633 767.111450,266.715240 
	C774.047119,266.713409 774.047119,266.693787 773.887756,258.510071 
	C773.429321,255.814209 775.124695,252.344101 770.759460,251.139389 
	C763.650146,249.177383 759.134644,243.957397 756.206665,237.673477 
	C752.994629,230.779831 750.409851,223.561340 747.984558,216.339035 
	C731.864258,168.336166 715.859985,120.294342 700.102539,71.757385 
	C702.047241,70.335510 703.991943,68.913643 706.512146,66.852562 
	C706.603027,64.872063 706.908386,62.873875 706.746826,60.914188 
	C706.120544,53.318256 706.065186,53.318451 698.279846,53.317818 
	C672.842590,53.315742 647.405273,53.314449 621.968018,53.318935 
	C614.766907,53.320206 614.766907,53.329739 614.278381,61.310940 
	C613.439758,64.935905 613.706238,67.902428 617.897034,69.497643 
	C619.153503,69.975929 619.884338,71.835403 620.427673,73.894333 
	C619.635986,76.599861 619.019714,79.371689 618.026184,82.000961 
	C604.053223,118.977112 590.166016,155.986740 575.949280,192.869217 
	C570.282715,207.569763 564.149170,222.109879 557.645386,236.458847 
	C554.883789,242.551697 550.121399,247.707291 543.516113,249.879425 
	C538.588867,251.499710 536.792236,254.070099 537.531250,259.548279 
	C537.291260,262.940247 535.958435,266.780914 541.828857,266.753296 
	C562.051819,266.658112 582.275757,266.665985 602.498779,266.765015 
	C606.775940,266.785950 608.051880,264.825623 607.564880,260.913910 
	C607.365906,259.315552 607.531982,257.671722 607.531982,256.048584 
	C607.962402,256.131256 608.392822,256.213928 608.823242,256.296631 
	C608.518677,257.033508 608.214111,257.770386 607.574280,257.261322 
	C607.664062,253.879822 606.306580,251.694824 602.769897,251.022552 
	C598.290039,250.170944 595.105591,247.573853 593.459229,242.893967 
	C595.657471,224.476776 603.375366,207.714539 609.372437,190.448349 
	C609.788513,189.250412 612.319031,187.985168 613.767090,188.092255 
	C618.862305,188.468964 623.914307,189.431107 628.934998,190.087662 
	C628.934998,190.087662 628.853821,190.139145 629.328613,190.649506 
M1432.919067,172.896912 
	C1432.951660,191.962860 1432.984375,211.028809 1432.837158,230.908722 
	C1432.496582,243.173523 1428.012573,249.735870 1417.513306,251.386368 
	C1412.258789,252.212387 1411.116455,254.412964 1411.877686,259.628021 
	C1411.236694,266.314514 1411.575195,266.714050 1418.337280,266.716217 
	C1449.968018,266.726440 1481.598877,266.722046 1513.229614,266.718048 
	C1520.652954,266.717102 1520.652954,266.708374 1520.031250,258.248871 
	C1520.031250,256.303650 1520.031250,254.358414 1520.031250,252.404266 
	C1518.251343,252.093185 1517.120972,251.871811 1515.982788,251.700470 
	C1507.228516,250.382492 1501.884766,245.516541 1500.248535,236.707321 
	C1500.008545,235.415756 1499.461670,234.181198 1499.139771,231.996185 
	C1499.090942,211.942108 1499.042114,191.888016 1499.396729,171.314423 
	C1517.856445,142.105286 1536.056030,112.725525 1555.002319,83.835526 
	C1558.653809,78.267624 1564.658447,73.505081 1570.636353,70.428474 
	C1575.644165,67.851166 1576.862427,65.318153 1575.933716,59.638294 
	C1575.933716,57.834526 1575.933716,56.030762 1575.933716,53.773762 
	C1573.619263,53.603382 1571.681763,53.340961 1569.743774,53.336929 
	C1553.458496,53.303047 1537.173340,53.307541 1520.888062,53.319931 
	C1513.889893,53.325256 1513.775024,53.473305 1513.914551,61.463459 
	C1512.897827,65.781982 1514.526245,67.987137 1518.864380,69.380394 
	C1521.319214,70.168831 1523.143066,72.921989 1524.970703,75.504379 
	C1516.688965,96.246841 1503.742188,114.273003 1491.674194,134.223923 
	C1487.590454,126.940231 1484.001221,120.835899 1480.696167,114.581345 
	C1473.964966,101.843338 1467.387207,89.024292 1460.927246,75.625374 
	C1461.740967,74.355873 1462.270752,72.637680 1463.425537,71.907051 
	C1466.108765,70.209351 1469.093628,68.988129 1472.597778,66.924110 
	C1472.696899,64.941925 1472.977173,62.949249 1472.863037,60.979408 
	C1472.419556,53.321297 1472.372925,53.318855 1464.534180,53.318283 
	C1431.577271,53.315876 1398.620239,53.315121 1365.663330,53.317814 
	C1358.329956,53.318413 1358.329956,53.325985 1358.075928,61.709286 
	C1356.985718,66.277039 1359.371826,68.070267 1363.356079,69.668854 
	C1366.913086,71.095993 1370.487549,73.383560 1373.034668,76.210258 
	C1376.781982,80.368935 1379.855591,85.200890 1382.811523,89.995590 
	C1399.630981,117.277847 1416.330078,144.634216 1432.919067,172.896912 
M322.160645,61.079117 
	C322.958710,57.530457 326.168304,53.957539 321.578094,49.953438 
	C319.190308,50.006405 316.579041,49.436947 314.447144,50.202511 
	C244.094360,75.465988 173.784790,100.849838 103.475410,126.234123 
	C79.776955,134.790146 56.067318,143.317642 32.456604,152.110077 
	C30.339827,152.898361 27.866899,155.359100 27.502371,157.391602 
	C27.211079,159.015747 29.877480,161.170349 30.874769,163.699020 
	C29.643997,165.708878 27.152027,167.984924 27.505646,169.660385 
	C27.935696,171.697968 30.664091,173.351425 32.599522,174.923187 
	C33.434006,175.600845 34.774666,175.653183 35.883663,175.995163 
	C77.897606,188.950699 119.888863,201.980865 161.956253,214.760437 
	C166.707031,216.203674 168.910370,218.716553 170.321136,223.358215 
	C182.962280,264.949921 195.810242,306.478943 208.695358,347.996002 
	C209.851791,351.722137 209.666321,356.962097 215.514053,357.062347 
	C221.254150,357.160767 221.506302,352.034729 222.842133,348.331299 
	C245.278366,286.129639 267.634430,223.899124 290.009857,161.675583 
	C300.943970,131.269058 311.886780,100.865662 322.808777,70.454781 
	C323.871948,67.494423 325.362274,64.445763 322.160645,61.079117 
M354.199158,303.398315 
	C358.718597,317.503265 363.255127,331.602783 367.740936,345.718414 
	C368.504028,348.119781 368.865784,350.195679 372.453461,350.194702 
	C376.005676,350.193756 377.397003,348.929626 378.321686,345.766724 
	C379.626709,341.302856 381.382660,336.969940 382.968750,332.589355 
	C384.524963,328.291168 386.109833,324.003357 388.177338,318.359100 
	C392.093597,329.805969 395.510834,339.794312 398.941803,349.822723 
	C401.652466,349.822723 404.104919,349.822723 406.681183,349.822723 
	C413.217499,331.617981 419.702728,313.555450 426.271240,295.261017 
	C423.506805,295.261017 421.406830,295.261017 419.880432,295.261017 
	C414.393188,310.650787 409.061249,325.605072 403.729279,340.559357 
	C403.324799,340.586639 402.920319,340.613892 402.515839,340.641174 
	C397.594727,325.569153 392.673645,310.497162 387.682861,295.211731 
	C385.649292,295.211731 383.385101,295.211731 380.707642,295.211731 
	C381.498535,297.585052 382.276398,299.595398 382.832092,301.665314 
	C383.596375,304.512451 385.399567,307.774994 384.651428,310.213318 
	C381.451538,320.642548 377.477844,330.834412 373.310883,342.436615 
	C368.062378,325.849701 363.220337,310.547424 358.364838,295.202515 
	C356.288483,295.202515 354.168793,295.202515 351.664612,295.202515 
	C352.505646,297.883698 353.248474,300.251770 354.199158,303.398315 
M1367.808594,345.365967 
	C1367.888306,346.814178 1367.968018,348.262360 1368.048218,349.718872 
	C1370.275757,349.718872 1372.172119,349.718872 1374.695068,349.718872 
	C1374.695068,335.805176 1374.695068,322.183533 1374.695068,308.561890 
	C1383.744507,320.716309 1392.051758,332.931549 1399.733643,345.528198 
	C1402.584595,350.202942 1405.810547,350.764679 1410.436035,349.497253 
	C1410.436035,331.251495 1410.436035,313.214142 1410.436035,294.901611 
	C1408.128784,295.060516 1406.214722,295.192322 1403.769531,295.360748 
	C1403.769531,309.662659 1403.769531,323.487793 1403.769531,337.312958 
	C1394.779297,324.942261 1386.448730,312.523041 1378.660522,299.772583 
	C1375.932861,295.307159 1372.895020,293.978424 1367.808594,295.568787 
	C1367.808594,311.822205 1367.808594,328.107605 1367.808594,345.365967 
M645.155151,305.350159 
	C644.079895,299.186981 639.789307,295.936249 634.185120,295.360260 
	C627.501770,294.673340 620.693787,295.198364 613.836731,295.198364 
	C613.836731,313.654236 613.836731,331.723297 613.836731,350.976196 
	C621.542114,350.515411 629.025330,350.649841 636.296997,349.475098 
	C644.113770,348.212280 648.290649,343.254761 648.871521,336.617645 
	C649.520874,329.197815 646.795227,325.265472 638.128418,321.490570 
	C644.124451,317.951691 646.012207,312.613251 645.155151,305.350159 
M854.288025,308.330322 
	C851.231323,300.339203 845.014832,295.982422 836.915222,295.262207 
	C828.686890,294.530609 820.342896,295.100616 811.825012,295.100616 
	C811.825012,313.463379 811.825012,331.539642 811.825012,349.913177 
	C819.694092,349.913177 827.382996,350.529572 834.929993,349.757751 
	C844.443787,348.784729 851.247253,343.423370 854.306946,334.079773 
	C857.019714,325.795715 857.180176,317.412659 854.288025,308.330322 
M1285.666870,340.386444 
	C1285.666870,336.274506 1285.666870,332.162537 1285.666870,327.686096 
	C1283.074097,327.853516 1281.005005,327.987122 1278.798218,328.129639 
	C1278.798218,332.316254 1278.904175,335.980713 1278.736816,339.632690 
	C1278.683105,340.802917 1278.246582,342.396393 1277.407837,343.021027 
	C1269.867432,348.636993 1254.599731,344.330414 1252.236328,335.160736 
	C1250.547485,328.608551 1250.321411,321.294586 1251.203735,314.550964 
	C1252.676147,303.298126 1262.216675,297.723328 1273.335449,300.690430 
	C1277.081421,301.690063 1280.629395,303.431244 1284.274170,304.835938 
	C1286.574341,297.618195 1286.586426,297.572662 1279.453491,295.678955 
	C1277.217529,295.085358 1274.913330,294.663818 1272.613159,294.411194 
	C1257.670044,292.770142 1246.125122,300.218811 1243.600952,314.102478 
	C1242.495728,320.181824 1242.638306,326.775055 1243.666138,332.890930 
	C1245.407471,343.252930 1251.709717,349.193268 1262.242188,349.978760 
	C1269.974243,350.555450 1277.847900,349.234619 1285.771973,348.752533 
	C1285.771973,345.297821 1285.771973,343.312836 1285.666870,340.386444 
M527.397888,350.032501 
	C529.830139,350.032501 532.262329,350.032501 534.870483,350.032501 
	C534.870483,347.847351 534.870483,346.389557 534.870483,344.280090 
	C526.810303,344.280090 518.917786,344.280090 510.857361,344.280090 
	C510.857361,337.430359 510.857361,331.234802 510.857361,324.592010 
	C517.356323,324.592010 523.451111,324.592010 529.789429,324.592010 
	C529.993286,322.595154 530.153809,321.023041 530.378357,318.823608 
	C523.606201,318.823608 517.221375,318.823608 511.091248,318.823608 
	C511.091248,312.476715 511.091248,306.730286 511.091248,300.691467 
	C517.673157,300.691467 523.822998,300.487549 529.951599,300.761536 
	C534.196411,300.951324 535.776978,299.521332 534.679749,295.355591 
	C524.185059,295.355591 513.813843,295.355591 503.411194,295.355591 
	C503.411194,313.651642 503.411194,331.558655 503.411194,350.032501 
	C511.219574,350.032501 518.822754,350.032501 527.397888,350.032501 
M935.797546,299.543427 
	C935.797546,316.293549 935.797546,333.043671 935.797546,349.883057 
	C946.499207,349.883057 956.617981,349.883057 967.099915,349.883057 
	C967.305969,348.213104 967.500000,346.641052 967.774048,344.420288 
	C959.408020,344.420288 951.513977,344.420288 943.272705,344.420288 
	C943.272705,337.602325 943.272705,331.379883 943.272705,324.681305 
	C948.207458,324.681305 953.004211,324.452972 957.768311,324.749176 
	C962.047302,325.015167 963.461365,323.390137 962.454895,318.778320 
	C956.038879,318.778320 949.644775,318.778320 943.529114,318.778320 
	C943.529114,312.473175 943.529114,306.752228 943.529114,300.561523 
	C951.561707,300.561523 959.144409,300.561523 966.991638,300.561523 
	C967.186951,298.551392 967.337952,296.996826 967.518005,295.142883 
	C966.123474,295.071991 965.156738,294.981262 964.189880,294.980164 
	C954.883057,294.969391 945.576233,294.973694 936.115417,294.973694 
	C935.993774,296.389252 935.895630,297.530609 935.797546,299.543427 
M1515.638550,321.878387 
	C1511.405518,319.583191 1506.936157,317.630157 1502.996826,314.909729 
	C1497.569092,311.161621 1498.227051,303.885315 1504.310913,301.360413 
	C1506.970825,300.256561 1510.446289,300.415558 1513.394653,300.918823 
	C1516.013672,301.365784 1518.416016,303.081665 1520.919556,304.240021 
	C1523.771240,296.947144 1523.375610,296.027618 1516.215210,295.047089 
	C1512.971680,294.602905 1509.569946,294.402649 1506.351685,294.867004 
	C1498.477295,296.003265 1493.211914,300.979462 1492.207520,307.583221 
	C1491.241455,313.935089 1494.044678,318.708832 1501.228149,322.739227 
	C1505.283325,325.014465 1509.576172,326.910675 1513.452148,329.450287 
	C1518.647583,332.854218 1518.514160,340.109680 1512.975708,342.924713 
	C1510.102905,344.384857 1506.205688,344.956360 1503.033691,344.409088 
	C1499.278809,343.761169 1495.806763,341.474213 1492.215332,339.899170 
	C1489.656372,346.441833 1489.966309,347.400757 1496.664795,349.142548 
	C1500.155884,350.050293 1503.874512,350.720673 1507.445923,350.553223 
	C1515.818726,350.160706 1522.295044,345.128052 1523.981323,338.424805 
	C1525.669800,331.713196 1523.594849,327.316162 1515.638550,321.878387 
M1050.621582,306.884583 
	C1054.262207,299.039856 1057.509521,298.601715 1072.541504,304.229034 
	C1072.981567,301.806244 1073.402588,299.488739 1074.082275,295.747406 
	C1067.918213,295.423981 1062.360352,294.466125 1056.953369,295.009491 
	C1049.414185,295.767181 1044.254395,301.045654 1043.223267,307.482452 
	C1042.204834,313.839813 1044.983765,318.657135 1052.131836,322.682159 
	C1056.181641,324.962616 1060.476807,326.848297 1064.358032,329.377380 
	C1069.775024,332.907043 1069.517334,340.334839 1063.658691,343.108490 
	C1060.755615,344.482880 1056.874023,344.869476 1053.691528,344.291473 
	C1050.000977,343.621216 1046.591797,341.401276 1043.048828,339.848877 
	C1040.972046,347.033234 1041.041138,347.759094 1048.008057,349.187317 
	C1052.762451,350.161987 1057.962036,350.582520 1062.682007,349.718353 
	C1069.299316,348.506836 1073.980225,344.163239 1075.221802,337.112854 
	C1076.344238,330.739288 1073.691284,325.896210 1066.988037,322.058289 
	C1063.243896,319.914581 1059.270996,318.170288 1055.529907,316.021759 
	C1052.399414,314.223785 1049.835815,311.868011 1050.621582,306.884583 
M1158.847900,350.019318 
	C1160.229248,349.907288 1161.610718,349.795227 1162.816406,349.697418 
	C1162.816406,331.195953 1162.816406,313.312683 1162.816406,295.275909 
	C1160.357300,295.275909 1158.148560,295.275909 1155.618408,295.275909 
	C1155.618408,312.971619 1155.588867,330.374237 1155.718506,347.775665 
	C1155.723999,348.528137 1157.194824,349.269714 1158.847900,350.019318 
z"/>
<path fill="#C75959" opacity="1.000000" stroke="none" 
	d="
M824.724426,111.967613 
	C824.809326,120.287697 824.959045,128.607727 824.967590,136.927887 
	C824.997620,166.252930 824.942749,195.578110 825.023743,224.902954 
	C825.034241,228.713699 825.301025,232.593872 826.060425,236.317230 
	C827.473022,243.243713 830.020691,249.698929 838.091309,251.126907 
	C842.692627,251.941010 843.749573,254.449738 842.548828,258.922791 
	C840.767151,259.518372 839.455078,259.822662 838.142456,259.824982 
	C820.405029,259.856171 802.667480,259.869415 784.930298,259.799652 
	C783.505981,259.794067 782.084167,259.145813 780.661194,258.796204 
	C780.081360,254.570374 781.131897,251.949814 786.005249,250.919556 
	C793.457153,249.344177 794.667297,242.722763 796.219238,235.764740 
	C796.471558,231.496918 796.639038,228.003677 796.649109,224.509979 
	C796.785034,177.204651 796.906372,129.899261 797.013794,82.593857 
	C797.042236,70.056099 792.936768,64.482353 780.710510,60.305500 
	C780.712585,53.342506 780.712585,53.323505 787.373413,53.321930 
	C818.173340,53.314632 848.973267,53.298328 879.773071,53.355160 
	C882.426941,53.360058 885.676758,52.397781 887.061951,56.845001 
	C886.524658,58.700989 886.120361,60.568474 885.096558,61.014763 
	C878.191895,64.024475 877.933167,69.249588 879.853516,75.365524 
	C886.227966,89.737122 892.591125,104.113770 898.988953,118.474998 
	C899.980530,120.700623 901.130920,122.855484 902.207886,125.043068 
	C902.740356,125.163315 903.272827,125.283562 903.805298,125.403809 
	C912.188354,108.126244 920.571472,90.848679 929.248169,72.882965 
	C930.839844,66.987785 929.198120,63.155109 924.247192,60.869434 
	C924.273804,53.326797 924.273804,53.319298 931.580078,53.318516 
	C960.323914,53.315437 989.067749,53.306408 1017.811584,53.326321 
	C1024.104492,53.330677 1024.197876,53.477955 1023.611328,60.303925 
	C1011.657227,62.809139 1005.643433,70.943802 1006.261475,84.003525 
	C1006.812866,84.781853 1007.311218,85.288300 1007.809570,85.794754 
	C1007.777710,86.441429 1007.745850,87.088097 1007.202393,88.231201 
	C1006.457336,90.156975 1006.020874,91.586159 1006.019775,93.015663 
	C1005.985046,138.202652 1005.990112,183.389648 1006.005188,228.576660 
	C1006.005676,229.892731 1006.178528,231.208740 1006.270996,232.524765 
	C1006.524353,232.413116 1006.794312,232.327423 1007.024353,232.179581 
	C1007.151978,232.097610 1007.212830,231.911804 1007.303711,231.772797 
	C1008.326416,235.586884 1009.119873,239.482117 1010.433228,243.193359 
	C1011.885437,247.297134 1014.718445,250.464767 1019.198364,251.143311 
	C1023.813416,251.842331 1024.813354,254.442581 1023.602539,258.890442 
	C1021.303894,259.504486 1019.486389,259.832458 1017.668457,259.834412 
	C988.511108,259.865845 959.353760,259.872375 930.196533,259.817841 
	C928.236694,259.814178 926.277832,259.277740 924.318542,258.989105 
	C923.488525,254.506302 924.924805,251.957489 929.794861,251.012177 
	C937.227783,249.569366 939.197327,243.274124 940.768433,237.015472 
	C941.371460,234.613235 941.456909,232.081070 942.141968,228.895447 
	C942.664307,227.373306 942.962036,226.563736 942.961609,225.754349 
	C942.938293,185.483246 942.889648,145.212173 942.865967,104.518257 
	C942.827393,102.128464 942.766357,100.161499 942.618835,97.990662 
	C942.070618,97.900620 941.608948,98.014465 940.933289,98.397842 
	C940.154785,99.481728 939.467529,100.237083 939.043457,101.118958 
	C922.953796,134.578888 906.896179,168.054245 890.811340,201.516495 
	C888.246582,206.852097 885.573669,212.135696 882.379028,218.600128 
	C862.974304,177.587906 844.147827,137.797775 825.321350,98.007645 
	C824.908447,98.185539 824.495544,98.363426 824.082642,98.541313 
	C824.082642,100.678734 824.082642,102.816154 823.825684,105.288055 
	C823.378784,107.425529 823.024475,109.228394 823.022888,111.031555 
	C822.990845,148.669510 822.998657,186.307480 822.998657,223.945450 
	C822.998657,225.398727 822.998657,226.852005 822.998657,228.305283 
	C823.334045,228.305923 823.669434,228.306564 824.004822,228.307220 
	C824.004822,226.531433 824.004883,224.755661 824.004883,222.979874 
	C824.004883,188.506149 823.997559,154.032440 824.020142,119.558731 
	C824.021790,117.067642 824.241150,114.576691 824.438721,112.019547 
	C824.518188,111.953407 824.724426,111.967613 824.724426,111.967613 
z"/>
<path fill="#C7595A" opacity="1.000000" stroke="none" 
	d="
M1260.819336,258.691803 
	C1259.666382,254.797165 1260.284668,252.433090 1265.000244,251.365952 
	C1267.813965,250.729187 1270.161377,248.031693 1273.093506,245.633835 
	C1272.543091,239.522675 1272.530273,233.678299 1270.534302,228.615891 
	C1261.671753,206.138000 1247.862793,186.546951 1233.564087,167.279572 
	C1230.822266,163.584915 1228.054199,162.385880 1223.366455,163.942490 
	C1218.431274,165.581238 1217.422607,168.594574 1217.975098,173.480042 
	C1217.964844,193.373276 1217.964844,212.799042 1217.964844,232.224808 
	C1218.209595,232.225540 1218.454468,232.226257 1218.699219,232.226990 
	C1218.836060,231.751312 1218.973022,231.275650 1219.109985,230.799988 
	C1219.658203,233.701157 1220.108398,236.625092 1220.775513,239.498688 
	C1222.093750,245.176331 1225.071533,249.828552 1231.033936,250.973114 
	C1235.824707,251.892746 1236.695801,254.528809 1235.802002,258.983002 
	C1234.015991,259.562469 1232.700439,259.836334 1231.384644,259.837372 
	C1201.787476,259.861328 1172.190186,259.871704 1142.593140,259.814667 
	C1140.808228,259.811218 1139.024536,259.225739 1137.240234,258.911072 
	C1136.465332,254.810577 1137.290527,252.246811 1142.127075,251.137650 
	C1151.637207,248.956635 1152.465698,240.574814 1153.897827,232.880737 
	C1154.137329,231.593521 1153.970337,230.230621 1154.266357,228.102448 
	C1154.694214,225.825745 1154.979492,224.349380 1154.980713,222.872787 
	C1155.018188,178.498474 1155.039917,134.124130 1155.000488,89.749870 
	C1154.998657,87.814041 1154.395264,85.878754 1154.100830,83.509247 
	C1153.722046,71.786377 1149.687988,61.268314 1137.196777,60.783386 
	C1136.906372,53.351654 1136.928223,53.319370 1144.508057,53.318905 
	C1191.156128,53.316059 1237.804443,53.254951 1284.452271,53.359379 
	C1297.378784,53.388313 1309.869629,55.476009 1321.567993,61.647156 
	C1331.106079,66.678795 1337.915649,80.666214 1333.698486,92.963394 
	C1331.729736,97.919670 1330.564697,102.511162 1328.334106,106.508041 
	C1320.609009,120.351166 1308.099121,129.051147 1294.770996,136.802246 
	C1293.370850,137.616577 1292.384521,139.142609 1291.206177,140.338440 
	C1292.656250,141.489059 1294.106445,142.639648 1295.556519,143.790222 
	C1304.270142,155.674484 1313.516357,167.210785 1321.565430,179.529251 
	C1332.148071,195.724945 1338.609009,213.932541 1344.951538,232.119583 
	C1348.192749,241.413544 1353.159790,249.151489 1363.596802,251.803864 
	C1364.790039,252.107101 1366.240234,253.906250 1366.423828,255.177460 
	C1366.868652,258.258179 1366.636230,261.436707 1366.345215,264.578888 
	C1365.912598,262.981415 1365.811279,261.380890 1365.714966,259.858521 
	C1332.353638,259.858521 1299.439331,259.877869 1266.525146,259.808655 
	C1264.622437,259.804657 1262.721191,259.080719 1260.819336,258.691803 
M1219.209106,89.760597 
	C1218.796265,93.875229 1218.083862,97.985756 1218.027588,102.105270 
	C1217.866089,113.901718 1217.932129,125.702103 1218.021851,137.500061 
	C1218.032471,138.890274 1218.745361,140.275162 1219.918579,141.882889 
	C1234.524292,139.394897 1247.471924,133.486496 1258.039062,122.951569 
	C1263.321899,117.684822 1267.353027,111.665520 1266.873413,103.507927 
	C1271.416748,89.169914 1261.562012,77.208076 1251.293945,75.985001 
	C1243.717041,75.082497 1235.750977,75.569031 1228.204956,76.869072 
	C1221.938354,77.948677 1219.242676,82.740448 1219.209106,89.760597 
z"/>
<path fill="#C75959" opacity="1.000000" stroke="none" 
	d="
M410.157806,95.689865 
	C409.201416,106.901283 411.209808,111.112755 422.086151,114.913689 
	C440.058746,121.194534 458.332031,126.614967 476.477844,132.400253 
	C493.049133,137.683563 508.045013,145.427155 519.073364,160.156769 
	C519.527161,161.067734 519.830872,161.418213 520.134583,161.768707 
	C520.134583,161.768692 520.238586,161.809692 520.299561,162.041687 
	C520.490540,162.504303 520.675720,162.675064 520.916016,162.785995 
	C520.916016,162.785995 521.138672,162.939575 521.173035,163.313873 
	C521.505737,164.061356 521.804077,164.434540 522.102478,164.807709 
	C522.102478,164.807709 522.242188,164.846329 522.242676,165.186935 
	C522.531860,165.963547 522.820496,166.399551 523.109192,166.835556 
	C523.109192,166.835556 523.217529,166.875580 523.218506,167.251434 
	C523.846008,168.699371 524.472534,169.771439 525.099060,170.843506 
	C525.099060,170.843521 525.212769,170.874283 525.217773,171.201096 
	C525.510620,171.963501 525.798401,172.399094 526.086182,172.834686 
	C526.086182,172.834686 526.196472,172.924271 526.141113,173.384277 
	C529.273804,187.224533 528.333252,200.668732 526.424316,214.290909 
	C525.404480,215.517517 524.407471,216.479675 523.974731,217.650421 
	C516.857117,236.906754 502.890503,249.202148 484.099731,256.212524 
	C454.461121,267.269989 423.911377,267.191040 393.131744,262.672760 
	C384.927673,261.468475 376.820557,259.617981 368.641754,258.223511 
	C360.102081,256.767517 352.221161,258.558258 345.030334,263.155945 
	C344.650848,260.325409 344.229401,257.879120 344.037689,255.414978 
	C343.087708,243.204834 342.260651,230.984909 341.270996,218.778122 
	C340.176117,205.273422 338.952026,191.779205 337.784210,178.280426 
	C339.324829,177.197815 340.772491,175.533844 342.443481,175.266617 
	C343.340546,175.123169 345.330963,177.225433 345.624298,178.575836 
	C351.481842,205.540283 366.417938,225.174530 392.290833,235.476715 
	C409.131927,242.182571 426.497650,242.080124 443.594055,236.167679 
	C453.732544,232.661453 460.407043,225.629105 462.263062,213.826492 
	C464.402344,204.013580 460.533020,197.212204 453.240295,192.715363 
	C446.929901,188.824249 440.074524,185.581406 433.097198,183.053558 
	C415.446167,176.658737 397.478455,171.134750 379.850098,164.681488 
	C363.076874,158.541275 351.725098,146.812943 346.433350,129.507294 
	C346.025177,128.172424 344.932953,127.046738 344.158722,125.823807 
	C344.045654,122.747780 343.630341,119.647850 343.871399,116.599838 
	C344.966278,102.757568 347.109375,89.241646 355.664551,77.583069 
	C365.349670,64.384659 378.689026,56.757648 393.898285,51.897625 
	C411.594238,46.243000 429.684235,46.866585 447.779785,49.050686 
	C455.519653,49.984875 463.121124,52.084328 470.863647,52.973644 
	C480.687531,54.102032 490.464508,53.801235 500.579834,46.602085 
	C503.142181,70.861122 505.555267,93.707260 507.670837,116.744232 
	C506.691528,116.167831 505.802826,114.633385 505.360229,114.752777 
	C501.214996,115.870880 500.580719,112.609344 498.829285,110.226303 
	C493.556030,103.051422 488.818329,95.147789 482.285004,89.301620 
	C467.201050,75.804108 449.548859,69.122345 429.026184,74.735924 
	C419.738586,77.276360 411.980896,82.163620 408.626160,91.873352 
	C408.287903,92.852264 409.607544,94.403976 410.157806,95.689865 
z"/>
<path fill="#C75859" opacity="1.000000" stroke="none" 
	d="
M699.817993,72.265182 
	C715.859985,120.294342 731.864258,168.336166 747.984558,216.339035 
	C750.409851,223.561340 752.994629,230.779831 756.206665,237.673477 
	C759.134644,243.957397 763.650146,249.177383 770.759460,251.139389 
	C775.124695,252.344101 773.429321,255.814209 773.449463,258.969421 
	C771.523376,259.570404 770.035522,259.834534 768.547607,259.835602 
	C735.891785,259.859375 703.235962,259.868713 670.580200,259.814392 
	C668.790649,259.811432 667.002075,259.232147 665.213013,258.921143 
	C664.242188,254.491913 665.635559,252.069870 670.359436,250.677612 
	C679.827087,247.887207 682.371277,243.278076 681.910400,231.288513 
	C682.661316,223.881653 680.097290,218.294815 676.412231,213.298737 
	C660.786499,192.113907 638.530273,183.637497 613.370178,181.048935 
	C611.950378,180.902863 610.372803,182.289749 608.631348,183.217407 
	C602.935974,200.631332 597.336670,217.748734 592.177856,234.997879 
	C591.436584,237.476379 592.818481,240.589905 593.217896,243.409576 
	C595.105591,247.573853 598.290039,250.170944 602.769897,251.022552 
	C606.306580,251.694824 607.664062,253.879822 607.702759,257.881470 
	C605.288635,258.952271 602.748230,259.778870 600.203003,259.793610 
	C581.219604,259.903412 562.235168,259.875824 543.251282,259.812775 
	C541.501587,259.806976 539.753784,259.253723 538.005066,258.954651 
	C536.792236,254.070099 538.588867,251.499710 543.516113,249.879425 
	C550.121399,247.707291 554.883789,242.551697 557.645386,236.458847 
	C564.149170,222.109879 570.282715,207.569763 575.949280,192.869217 
	C590.166016,155.986740 604.053223,118.977112 618.026184,82.000961 
	C619.019714,79.371689 619.635986,76.599861 620.593872,73.211548 
	C622.817993,66.975410 621.520813,64.382195 614.875305,60.764137 
	C614.766907,53.329739 614.766907,53.320206 621.968018,53.318935 
	C647.405273,53.314449 672.842590,53.315742 698.279846,53.317818 
	C706.065186,53.318451 706.120544,53.318256 706.746826,60.914188 
	C706.908386,62.873875 706.603027,64.872063 706.216309,66.725082 
	C705.832458,64.984138 705.744568,63.370678 705.654297,61.714073 
	C698.853333,63.087116 697.126526,66.366379 699.817993,72.265182 
M633.679199,109.677246 
	C631.494263,115.922562 629.280212,122.157875 627.131409,128.415573 
	C624.064941,137.345520 620.976624,146.269348 618.072754,155.252396 
	C617.561401,156.834259 615.612488,159.881973 621.096313,159.387405 
	C635.626099,160.038391 648.346069,166.015610 661.067139,173.431824 
	C665.095093,173.132187 662.588135,170.592331 662.204590,169.345352 
	C656.116943,149.555862 649.906006,129.804153 643.676819,110.058441 
	C642.331421,105.793648 640.804138,101.586235 639.360596,97.352394 
	C638.862915,97.383675 638.365295,97.414955 637.867676,97.446243 
	C636.587280,101.313423 635.306885,105.180603 633.679199,109.677246 
z"/>
<path fill="#C7595A" opacity="1.000000" stroke="none" 
	d="
M1412.138672,258.939240 
	C1411.116455,254.412964 1412.258789,252.212387 1417.513306,251.386368 
	C1428.012573,249.735870 1432.496582,243.173523 1433.151123,230.141510 
	C1433.640869,228.406754 1433.970825,227.439102 1433.969971,226.471756 
	C1433.954468,208.265320 1433.899780,190.058884 1433.878174,171.442139 
	C1433.052246,167.901871 1432.864624,164.369873 1431.248291,161.704254 
	C1415.212891,135.258728 1399.065308,108.878929 1382.670532,82.654915 
	C1376.725830,73.145996 1371.233887,62.754284 1358.316406,60.874271 
	C1358.329956,53.325985 1358.329956,53.318413 1365.663330,53.317814 
	C1398.620239,53.315121 1431.577271,53.315876 1464.534180,53.318283 
	C1472.372925,53.318855 1472.419556,53.321297 1472.863037,60.979408 
	C1472.977173,62.949249 1472.696899,64.941925 1472.287842,66.792999 
	C1471.901978,65.034409 1471.826050,63.406929 1471.750244,61.779133 
	C1462.075684,62.291840 1458.241211,67.480568 1460.746216,76.238617 
	C1467.387207,89.024292 1473.964966,101.843338 1480.696167,114.581345 
	C1484.001221,120.835899 1487.590454,126.940231 1491.674194,134.223923 
	C1503.742188,114.273003 1516.688965,96.246841 1525.260132,74.810242 
	C1526.419189,66.844406 1525.041138,64.311783 1518.943481,62.158070 
	C1517.379395,61.605614 1515.754395,61.225182 1514.157471,60.765724 
	C1513.775024,53.473305 1513.889893,53.325256 1520.888062,53.319931 
	C1537.173340,53.307541 1553.458496,53.303047 1569.743774,53.336929 
	C1571.681763,53.340961 1573.619263,53.603382 1575.933716,53.773762 
	C1575.933716,56.030762 1575.933716,57.834526 1575.570068,60.242645 
	C1565.789185,64.197319 1558.256348,70.076408 1552.920288,78.449814 
	C1535.411499,105.925140 1517.980469,133.451523 1500.801025,161.133026 
	C1498.937866,164.135223 1498.908081,168.275146 1498.013916,172.366241 
	C1498.002075,191.760620 1497.986572,210.676163 1498.051392,229.591400 
	C1498.055176,230.702133 1498.706787,231.810654 1499.056885,232.920227 
	C1499.461670,234.181198 1500.008545,235.415756 1500.248535,236.707321 
	C1501.884766,245.516541 1507.228516,250.382492 1515.982788,251.700470 
	C1517.120972,251.871811 1518.251343,252.093185 1520.031250,252.404266 
	C1520.031250,254.358414 1520.031250,256.303650 1519.573486,258.829437 
	C1517.973999,259.558167 1516.832520,259.834991 1515.690674,259.835785 
	C1482.959473,259.858856 1450.228394,259.868530 1417.497314,259.815033 
	C1415.710571,259.812103 1413.924805,259.244171 1412.138672,258.939240 
z"/>
<path fill="#F0CF73" opacity="1.000000" stroke="none" 
	d="
M31.231098,163.089508 
	C29.877480,161.170349 27.211079,159.015747 27.502371,157.391602 
	C27.866899,155.359100 30.339827,152.898361 32.456604,152.110077 
	C56.067318,143.317642 79.776955,134.790146 103.475410,126.234123 
	C173.784790,100.849838 244.094360,75.465988 314.447144,50.202511 
	C316.579041,49.436947 319.190308,50.006405 321.677490,50.544479 
	C320.340118,52.741177 318.976715,54.420197 317.455872,55.941849 
	C269.094788,104.328934 220.717316,152.699661 172.349426,201.079971 
	C170.821747,202.608047 169.368607,204.210663 167.569183,205.642151 
	C158.580505,202.670868 149.938873,199.721405 141.220062,197.021072 
	C104.569633,185.669983 67.896149,174.393372 31.231098,163.089508 
z"/>
<path fill="#CAC0B3" opacity="1.000000" stroke="none" 
	d="
M167.880737,205.778534 
	C169.368607,204.210663 170.821747,202.608047 172.349426,201.079971 
	C220.717316,152.699661 269.094788,104.328934 317.455872,55.941849 
	C318.976715,54.420197 320.340118,52.741177 321.915344,50.796913 
	C326.168304,53.957539 322.958710,57.530457 321.945679,61.771603 
	C321.175629,63.855484 320.578064,65.231621 320.071472,66.640465 
	C290.426605,149.080322 260.788574,231.522629 231.152298,313.965546 
	C227.997131,322.742645 225.114655,331.632294 221.538681,340.234009 
	C220.574524,342.553223 217.658920,345.206177 215.390762,345.456573 
	C213.736023,345.639221 211.634201,342.169220 209.823502,340.241302 
	C209.409485,339.800507 209.360947,339.008667 209.164932,338.372009 
	C200.098373,308.924896 191.079651,279.462891 181.950424,250.035202 
	C177.363937,235.250900 172.577011,220.528778 167.880737,205.778534 
z"/>
<path fill="#C3595B" opacity="1.000000" stroke="none" 
	d="
M167.569183,205.642136 
	C172.577011,220.528778 177.363937,235.250900 181.950424,250.035202 
	C191.079651,279.462891 200.098373,308.924896 209.164932,338.372009 
	C209.360947,339.008667 209.409485,339.800507 209.823502,340.241302 
	C211.634201,342.169220 213.736023,345.639221 215.390762,345.456573 
	C217.658920,345.206177 220.574524,342.553223 221.538681,340.234009 
	C225.114655,331.632294 227.997131,322.742645 231.152298,313.965546 
	C260.788574,231.522629 290.426605,149.080322 320.071472,66.640465 
	C320.578064,65.231621 321.175629,63.855484 321.915527,62.140011 
	C325.362274,64.445763 323.871948,67.494423 322.808777,70.454781 
	C311.886780,100.865662 300.943970,131.269058 290.009857,161.675583 
	C267.634430,223.899124 245.278366,286.129639 222.842133,348.331299 
	C221.506302,352.034729 221.254150,357.160767 215.514053,357.062347 
	C209.666321,356.962097 209.851791,351.722137 208.695358,347.996002 
	C195.810242,306.478943 182.962280,264.949921 170.321136,223.358215 
	C168.910370,218.716553 166.707031,216.203674 161.956253,214.760437 
	C119.888863,201.980865 77.897606,188.950699 35.883663,175.995163 
	C34.774666,175.653183 33.434006,175.600845 32.599522,174.923187 
	C30.664091,173.351425 27.935696,171.697968 27.505646,169.660385 
	C27.152027,167.984924 29.643997,165.708878 31.052935,163.394257 
	C67.896149,174.393372 104.569633,185.669983 141.220062,197.021072 
	C149.938873,199.721405 158.580505,202.670868 167.569183,205.642136 
z"/>
<path fill="#C75859" opacity="1.000000" stroke="none" 
	d="
M1037.661865,209.170395 
	C1037.515991,207.631577 1036.789062,205.851105 1037.313110,204.590820 
	C1043.559326,189.569809 1049.980347,174.621323 1056.404053,159.674713 
	C1056.773926,158.814285 1057.563110,158.133987 1058.726074,156.637924 
	C1062.075317,163.801880 1068.281372,163.125488 1074.235596,163.133240 
	C1082.718262,163.144287 1091.201050,163.125473 1099.683716,163.137634 
	C1105.860229,163.146484 1111.548828,161.780991 1116.184082,157.385941 
	C1118.175781,155.497360 1119.969604,155.561874 1121.615967,158.387955 
	C1121.681519,158.875046 1121.705322,159.133011 1121.705322,159.133011 
	C1121.588867,159.689651 1121.472412,160.246292 1120.825928,161.697006 
	C1119.811768,163.238403 1119.174072,163.820328 1118.866455,164.542755 
	C1112.978882,178.372360 1107.130005,192.218430 1101.106323,206.317307 
	C1099.892700,206.416748 1098.794800,206.410995 1097.808228,206.076584 
	C1093.959229,204.771744 1090.202759,202.416626 1086.307129,202.180511 
	C1076.857666,201.607849 1067.300171,201.429062 1057.885010,202.240265 
	C1052.846191,202.674408 1048.011108,205.483551 1043.085938,207.225998 
	C1041.275269,207.866592 1039.469604,208.521835 1037.661865,209.170395 
z"/>
<path fill="#E3C56F" opacity="1.000000" stroke="none" 
	d="
M354.095215,303.009094 
	C353.248474,300.251770 352.505646,297.883698 351.664612,295.202515 
	C354.168793,295.202515 356.288483,295.202515 358.364838,295.202515 
	C363.220337,310.547424 368.062378,325.849701 373.310883,342.436615 
	C377.477844,330.834412 381.451538,320.642548 384.651428,310.213318 
	C385.399567,307.774994 383.596375,304.512451 382.832092,301.665314 
	C382.276398,299.595398 381.498535,297.585052 380.707642,295.211731 
	C383.385101,295.211731 385.649292,295.211731 387.682861,295.211731 
	C392.673645,310.497162 397.594727,325.569153 402.515839,340.641174 
	C402.920319,340.613892 403.324799,340.586639 403.729279,340.559357 
	C409.061249,325.605072 414.393188,310.650787 419.880432,295.261017 
	C421.406830,295.261017 423.506805,295.261017 426.271240,295.261017 
	C419.702728,313.555450 413.217499,331.617981 406.681183,349.822723 
	C404.104919,349.822723 401.652466,349.822723 398.941803,349.822723 
	C395.510834,339.794312 392.093597,329.805969 388.177338,318.359100 
	C386.109833,324.003357 384.524963,328.291168 382.968750,332.589355 
	C381.382660,336.969940 379.626709,341.302856 378.321686,345.766724 
	C377.397003,348.929626 376.005676,350.193756 372.453461,350.194702 
	C368.865784,350.195679 368.504028,348.119781 367.740936,345.718414 
	C363.255127,331.602783 358.718597,317.503265 354.095215,303.009094 
z"/>
<path fill="#EAC86C" opacity="1.000000" stroke="none" 
	d="
M345.094330,263.531921 
	C352.221161,258.558258 360.102081,256.767517 368.641754,258.223511 
	C376.820557,259.617981 384.927673,261.468475 393.131744,262.672760 
	C423.911377,267.191040 454.461121,267.269989 484.099731,256.212524 
	C502.890503,249.202148 516.857117,236.906754 523.974731,217.650421 
	C524.407471,216.479675 525.404480,215.517517 526.427368,214.603851 
	C526.496216,215.512894 526.276794,216.276413 526.057312,217.039932 
	C524.059265,229.436737 518.302368,239.877518 509.075378,248.252197 
	C494.254852,261.703796 476.245270,268.238983 456.718506,270.117371 
	C441.553833,271.576141 426.196106,272.570740 411.014648,271.854523 
	C397.348724,271.209839 383.755066,268.234772 370.227356,265.754181 
	C361.999268,264.245361 354.428558,264.206451 347.637329,269.863861 
	C346.298218,270.979401 344.453491,272.362793 343.777222,268.419800 
	C344.325684,266.274750 344.710022,264.903320 345.094330,263.531921 
z"/>
<path fill="#E7C870" opacity="1.000000" stroke="none" 
	d="
M1367.808594,344.879486 
	C1367.808594,328.107605 1367.808594,311.822205 1367.808594,295.568787 
	C1372.895020,293.978424 1375.932861,295.307159 1378.660522,299.772583 
	C1386.448730,312.523041 1394.779297,324.942261 1403.769531,337.312958 
	C1403.769531,323.487793 1403.769531,309.662659 1403.769531,295.360748 
	C1406.214722,295.192322 1408.128784,295.060516 1410.436035,294.901611 
	C1410.436035,313.214142 1410.436035,331.251495 1410.436035,349.497253 
	C1405.810547,350.764679 1402.584595,350.202942 1399.733643,345.528198 
	C1392.051758,332.931549 1383.744507,320.716309 1374.695068,308.561890 
	C1374.695068,322.183533 1374.695068,335.805176 1374.695068,349.718872 
	C1372.172119,349.718872 1370.275757,349.718872 1368.048218,349.718872 
	C1367.968018,348.262360 1367.888306,346.814178 1367.808594,344.879486 
z"/>
<path fill="#E6C770" opacity="1.000000" stroke="none" 
	d="
M645.226807,305.742371 
	C646.012207,312.613251 644.124451,317.951691 638.128418,321.490570 
	C646.795227,325.265472 649.520874,329.197815 648.871521,336.617645 
	C648.290649,343.254761 644.113770,348.212280 636.296997,349.475098 
	C629.025330,350.649841 621.542114,350.515411 613.836731,350.976196 
	C613.836731,331.723297 613.836731,313.654236 613.836731,295.198364 
	C620.693787,295.198364 627.501770,294.673340 634.185120,295.360260 
	C639.789307,295.936249 644.079895,299.186981 645.226807,305.742371 
M632.674866,325.342651 
	C628.770752,325.342651 624.866577,325.342651 620.808167,325.342651 
	C620.808167,328.930176 620.808167,332.090088 620.808167,335.249969 
	C620.808167,338.361359 620.808167,341.472748 620.808167,345.315338 
	C625.448730,344.887421 629.437622,344.910828 633.238586,344.077423 
	C638.947021,342.825806 641.271729,339.850006 641.360718,334.908417 
	C641.451782,329.851807 639.427979,327.475433 632.674866,325.342651 
M628.274414,300.673218 
	C626.015625,300.673218 623.756897,300.673218 620.903076,300.673218 
	C620.903076,306.055237 620.885132,310.827362 620.916382,315.599152 
	C620.923706,316.717834 621.097473,317.835449 621.189697,318.896515 
	C632.370178,320.299957 637.119263,317.895569 637.891174,310.608704 
	C638.557373,304.319855 636.107605,301.530457 628.274414,300.673218 
z"/>
<path fill="#E6C770" opacity="1.000000" stroke="none" 
	d="
M854.457520,308.679260 
	C857.180176,317.412659 857.019714,325.795715 854.306946,334.079773 
	C851.247253,343.423370 844.443787,348.784729 834.929993,349.757751 
	C827.382996,350.529572 819.694092,349.913177 811.825012,349.913177 
	C811.825012,331.539642 811.825012,313.463379 811.825012,295.100616 
	C820.342896,295.100616 828.686890,294.530609 836.915222,295.262207 
	C845.014832,295.982422 851.231323,300.339203 854.457520,308.679260 
M848.707520,318.079407 
	C846.782288,301.449524 838.047424,298.787048 819.109131,301.492004 
	C819.109131,315.514984 819.109131,329.580109 819.109131,344.256897 
	C823.845947,344.256897 828.302734,344.437286 832.739624,344.216492 
	C840.225037,343.843964 845.346558,340.046051 847.222900,332.742950 
	C848.363586,328.303040 848.309387,323.556152 848.707520,318.079407 
z"/>
<path fill="#E2C066" opacity="1.000000" stroke="none" 
	d="
M824.082642,104.953575 
	C824.082642,102.816154 824.082642,100.678734 824.082642,98.541313 
	C824.495544,98.363426 824.908447,98.185539 825.321350,98.007645 
	C844.147827,137.797775 862.974304,177.587906 882.379028,218.600128 
	C885.573669,212.135696 888.246582,206.852097 890.811340,201.516495 
	C906.896179,168.054245 922.953796,134.578888 939.043457,101.118958 
	C939.467529,100.237083 940.154785,99.481728 941.193359,98.398163 
	C942.013428,98.150803 942.359375,98.172668 942.705383,98.194542 
	C942.766357,100.161499 942.827393,102.128464 942.657776,104.772850 
	C942.268311,106.272499 942.109436,107.094719 941.950562,107.916939 
	C940.647827,109.295143 938.896362,110.456100 938.108459,112.083549 
	C921.680847,146.012421 905.372437,179.998978 889.008911,213.958908 
	C887.151062,217.814438 885.104492,221.578979 882.477905,226.682831 
	C863.517456,186.609558 845.115051,147.715652 826.286377,107.920815 
	C825.597961,109.567383 825.220642,110.469963 824.783813,111.670074 
	C824.724426,111.967613 824.518188,111.953407 824.479004,111.725754 
	C824.320740,109.316582 824.201721,107.135078 824.082642,104.953575 
z"/>
<path fill="#E5C770" opacity="1.000000" stroke="none" 
	d="
M1285.719482,340.857147 
	C1285.771973,343.312836 1285.771973,345.297821 1285.771973,348.752533 
	C1277.847900,349.234619 1269.974243,350.555450 1262.242188,349.978760 
	C1251.709717,349.193268 1245.407471,343.252930 1243.666138,332.890930 
	C1242.638306,326.775055 1242.495728,320.181824 1243.600952,314.102478 
	C1246.125122,300.218811 1257.670044,292.770142 1272.613159,294.411194 
	C1274.913330,294.663818 1277.217529,295.085358 1279.453491,295.678955 
	C1286.586426,297.572662 1286.574341,297.618195 1284.274170,304.835938 
	C1280.629395,303.431244 1277.081421,301.690063 1273.335449,300.690430 
	C1262.216675,297.723328 1252.676147,303.298126 1251.203735,314.550964 
	C1250.321411,321.294586 1250.547485,328.608551 1252.236328,335.160736 
	C1254.599731,344.330414 1269.867432,348.636993 1277.407837,343.021027 
	C1278.246582,342.396393 1278.683105,340.802917 1278.736816,339.632690 
	C1278.904175,335.980713 1278.798218,332.316254 1278.798218,328.129639 
	C1281.005005,327.987122 1283.074097,327.853516 1285.666870,327.686096 
	C1285.666870,332.162537 1285.666870,336.274506 1285.719482,340.857147 
z"/>
<path fill="#E8C96E" opacity="1.000000" stroke="none" 
	d="
M344.214874,126.251923 
	C344.932953,127.046738 346.025177,128.172424 346.433350,129.507294 
	C351.725098,146.812943 363.076874,158.541275 379.850098,164.681488 
	C397.478455,171.134750 415.446167,176.658737 433.097198,183.053558 
	C440.074524,185.581406 446.929901,188.824249 453.240295,192.715363 
	C460.533020,197.212204 464.402344,204.013580 462.396240,213.443176 
	C460.684479,201.612106 451.072205,196.936630 441.473022,193.297302 
	C424.734833,186.951385 407.554871,181.780762 390.646637,175.870026 
	C376.449402,170.906998 362.611481,165.301270 353.705627,151.991425 
	C348.534729,144.263504 344.775330,136.102448 344.214874,126.251923 
z"/>
<path fill="#E1C36F" opacity="1.000000" stroke="none" 
	d="
M526.911926,350.032501 
	C518.822754,350.032501 511.219574,350.032501 503.411194,350.032501 
	C503.411194,331.558655 503.411194,313.651642 503.411194,295.355591 
	C513.813843,295.355591 524.185059,295.355591 534.679749,295.355591 
	C535.776978,299.521332 534.196411,300.951324 529.951599,300.761536 
	C523.822998,300.487549 517.673157,300.691467 511.091248,300.691467 
	C511.091248,306.730286 511.091248,312.476715 511.091248,318.823608 
	C517.221375,318.823608 523.606201,318.823608 530.378357,318.823608 
	C530.153809,321.023041 529.993286,322.595154 529.789429,324.592010 
	C523.451111,324.592010 517.356323,324.592010 510.857361,324.592010 
	C510.857361,331.234802 510.857361,337.430359 510.857361,344.280090 
	C518.917786,344.280090 526.810303,344.280090 534.870483,344.280090 
	C534.870483,346.389557 534.870483,347.847351 534.870483,350.032501 
	C532.262329,350.032501 529.830139,350.032501 526.911926,350.032501 
z"/>
<path fill="#E3C56F" opacity="1.000000" stroke="none" 
	d="
M935.797546,299.107697 
	C935.895630,297.530609 935.993774,296.389252 936.115417,294.973694 
	C945.576233,294.973694 954.883057,294.969391 964.189880,294.980164 
	C965.156738,294.981262 966.123474,295.071991 967.518005,295.142883 
	C967.337952,296.996826 967.186951,298.551392 966.991638,300.561523 
	C959.144409,300.561523 951.561707,300.561523 943.529114,300.561523 
	C943.529114,306.752228 943.529114,312.473175 943.529114,318.778320 
	C949.644775,318.778320 956.038879,318.778320 962.454895,318.778320 
	C963.461365,323.390137 962.047302,325.015167 957.768311,324.749176 
	C953.004211,324.452972 948.207458,324.681305 943.272705,324.681305 
	C943.272705,331.379883 943.272705,337.602325 943.272705,344.420288 
	C951.513977,344.420288 959.408020,344.420288 967.774048,344.420288 
	C967.500000,346.641052 967.305969,348.213104 967.099915,349.883057 
	C956.617981,349.883057 946.499207,349.883057 935.797546,349.883057 
	C935.797546,333.043671 935.797546,316.293549 935.797546,299.107697 
z"/>
<path fill="#E6C770" opacity="1.000000" stroke="none" 
	d="
M1515.971436,322.017303 
	C1523.594849,327.316162 1525.669800,331.713196 1523.981323,338.424805 
	C1522.295044,345.128052 1515.818726,350.160706 1507.445923,350.553223 
	C1503.874512,350.720673 1500.155884,350.050293 1496.664795,349.142548 
	C1489.966309,347.400757 1489.656372,346.441833 1492.215332,339.899170 
	C1495.806763,341.474213 1499.278809,343.761169 1503.033691,344.409088 
	C1506.205688,344.956360 1510.102905,344.384857 1512.975708,342.924713 
	C1518.514160,340.109680 1518.647583,332.854218 1513.452148,329.450287 
	C1509.576172,326.910675 1505.283325,325.014465 1501.228149,322.739227 
	C1494.044678,318.708832 1491.241455,313.935089 1492.207520,307.583221 
	C1493.211914,300.979462 1498.477295,296.003265 1506.351685,294.867004 
	C1509.569946,294.402649 1512.971680,294.602905 1516.215210,295.047089 
	C1523.375610,296.027618 1523.771240,296.947144 1520.919556,304.240021 
	C1518.416016,303.081665 1516.013672,301.365784 1513.394653,300.918823 
	C1510.446289,300.415558 1506.970825,300.256561 1504.310913,301.360413 
	C1498.227051,303.885315 1497.569092,311.161621 1502.996826,314.909729 
	C1506.936157,317.630157 1511.405518,319.583191 1515.971436,322.017303 
z"/>
<path fill="#E6C770" opacity="1.000000" stroke="none" 
	d="
M1050.509644,307.290222 
	C1049.835815,311.868011 1052.399414,314.223785 1055.529907,316.021759 
	C1059.270996,318.170288 1063.243896,319.914581 1066.988037,322.058289 
	C1073.691284,325.896210 1076.344238,330.739288 1075.221802,337.112854 
	C1073.980225,344.163239 1069.299316,348.506836 1062.682007,349.718353 
	C1057.962036,350.582520 1052.762451,350.161987 1048.008057,349.187317 
	C1041.041138,347.759094 1040.972046,347.033234 1043.048828,339.848877 
	C1046.591797,341.401276 1050.000977,343.621216 1053.691528,344.291473 
	C1056.874023,344.869476 1060.755615,344.482880 1063.658691,343.108490 
	C1069.517334,340.334839 1069.775024,332.907043 1064.358032,329.377380 
	C1060.476807,326.848297 1056.181641,324.962616 1052.131836,322.682159 
	C1044.983765,318.657135 1042.204834,313.839813 1043.223267,307.482452 
	C1044.254395,301.045654 1049.414185,295.767181 1056.953369,295.009491 
	C1062.360352,294.466125 1067.918213,295.423981 1074.082275,295.747406 
	C1073.402588,299.488739 1072.981567,301.806244 1072.541504,304.229034 
	C1057.509521,298.601715 1054.262207,299.039856 1050.509644,307.290222 
z"/>
<path fill="#E5C36B" opacity="1.000000" stroke="none" 
	d="
M665.092102,259.265350 
	C667.002075,259.232147 668.790649,259.811432 670.580200,259.814392 
	C703.235962,259.868713 735.891785,259.859375 768.547607,259.835602 
	C770.035522,259.834534 771.523376,259.570404 773.413086,259.414856 
	C774.047119,266.693787 774.047119,266.713409 767.111450,266.715240 
	C735.221436,266.723633 703.331421,266.726837 671.441406,266.715698 
	C664.634705,266.713318 664.477356,266.509277 665.092102,259.265350 
z"/>
<path fill="#E5C36A" opacity="1.000000" stroke="none" 
	d="
M1412.008179,259.283630 
	C1413.924805,259.244171 1415.710571,259.812103 1417.497314,259.815033 
	C1450.228394,259.868530 1482.959473,259.858856 1515.690674,259.835785 
	C1516.832520,259.834991 1517.973999,259.558167 1519.495850,259.266479 
	C1520.652954,266.708374 1520.652954,266.717102 1513.229614,266.718048 
	C1481.598877,266.722046 1449.968018,266.726440 1418.337280,266.716217 
	C1411.575195,266.714050 1411.236694,266.314514 1412.008179,259.283630 
z"/>
<path fill="#E5C36B" opacity="1.000000" stroke="none" 
	d="
M1260.590332,258.920380 
	C1262.721191,259.080719 1264.622437,259.804657 1266.525146,259.808655 
	C1299.439331,259.877869 1332.353638,259.858521 1365.714966,259.858521 
	C1365.811279,261.380890 1365.912598,262.981415 1366.063843,264.982697 
	C1364.083496,265.829315 1362.054199,266.658234 1360.022827,266.663635 
	C1328.954468,266.746033 1297.885864,266.727142 1266.817261,266.716095 
	C1259.973511,266.713654 1259.627563,266.279907 1260.590332,258.920380 
z"/>
<path fill="#E9C86D" opacity="1.000000" stroke="none" 
	d="
M410.221985,95.376900 
	C409.607544,94.403976 408.287903,92.852264 408.626160,91.873352 
	C411.980896,82.163620 419.738586,77.276360 429.026184,74.735924 
	C449.548859,69.122345 467.201050,75.804108 482.285004,89.301620 
	C488.818329,95.147789 493.556030,103.051422 498.829285,110.226303 
	C500.580719,112.609344 501.214996,115.870880 505.360229,114.752777 
	C505.802826,114.633385 506.691528,116.167831 507.589661,117.233047 
	C506.920349,118.955353 506.341888,121.132362 505.084442,121.645523 
	C502.555450,122.677605 500.557678,121.658813 499.241699,118.766365 
	C492.541260,104.039116 481.708405,93.152992 467.270386,86.015274 
	C451.140228,78.041023 434.823792,76.910851 418.935394,86.567490 
	C415.573029,88.611053 413.144775,92.191566 410.221985,95.376900 
z"/>
<path fill="#E5C26A" opacity="1.000000" stroke="none" 
	d="
M924.183960,259.320618 
	C926.277832,259.277740 928.236694,259.814178 930.196533,259.817841 
	C959.353760,259.872375 988.511108,259.865845 1017.668457,259.834412 
	C1019.486389,259.832458 1021.303894,259.504486 1023.533997,259.338074 
	C1024.833130,266.128998 1024.393188,266.711670 1017.921448,266.715424 
	C988.676086,266.732452 959.430725,266.732361 930.185364,266.714233 
	C923.930969,266.710358 923.639160,266.327789 924.183960,259.320618 
z"/>
<path fill="#E5C36A" opacity="1.000000" stroke="none" 
	d="
M1137.114014,259.340729 
	C1139.024536,259.225739 1140.808228,259.811218 1142.593140,259.814667 
	C1172.190186,259.871704 1201.787476,259.861328 1231.384644,259.837372 
	C1232.700439,259.836334 1234.015991,259.562469 1235.758423,259.445038 
	C1236.351074,266.701691 1236.351074,266.715424 1229.432861,266.716949 
	C1200.853271,266.723236 1172.273560,266.726440 1143.693970,266.716705 
	C1136.752930,266.714355 1136.604126,266.535522 1137.114014,259.340729 
z"/>
<path fill="#E6BF64" opacity="1.000000" stroke="none" 
	d="
M1498.027954,171.887360 
	C1498.908081,168.275146 1498.937866,164.135223 1500.801025,161.133026 
	C1517.980469,133.451523 1535.411499,105.925140 1552.920288,78.449814 
	C1558.256348,70.076408 1565.789185,64.197319 1575.478516,60.695023 
	C1576.862427,65.318153 1575.644165,67.851166 1570.636353,70.428474 
	C1564.658447,73.505081 1558.653809,78.267624 1555.002319,83.835526 
	C1536.056030,112.725525 1517.856445,142.105286 1498.953369,171.587128 
	C1498.509888,171.859818 1498.027954,171.887360 1498.027954,171.887360 
z"/>
<path fill="#E5C76E" opacity="1.000000" stroke="none" 
	d="
M1358.196167,61.291779 
	C1371.233887,62.754284 1376.725830,73.145996 1382.670532,82.654915 
	C1399.065308,108.878929 1415.212891,135.258728 1431.248291,161.704254 
	C1432.864624,164.369873 1433.052246,167.901871 1433.682007,171.466217 
	C1433.461182,171.900589 1433.070312,171.965286 1433.070312,171.965302 
	C1416.330078,144.634216 1399.630981,117.277847 1382.811523,89.995590 
	C1379.855591,85.200890 1376.781982,80.368935 1373.034668,76.210258 
	C1370.487549,73.383560 1366.913086,71.095993 1363.356079,69.668854 
	C1359.371826,68.070267 1356.985718,66.277039 1358.196167,61.291779 
z"/>
<path fill="#E8C96E" opacity="1.000000" stroke="none" 
	d="
M608.868652,182.963135 
	C610.372803,182.289749 611.950378,180.902863 613.370178,181.048935 
	C638.530273,183.637497 660.786499,192.113907 676.412231,213.298737 
	C680.097290,218.294815 682.661316,223.881653 681.999023,230.864471 
	C679.013306,226.264694 676.539917,220.823837 672.982483,216.220734 
	C663.867615,204.426697 651.295288,197.592438 637.379639,192.966705 
	C635.810425,192.445068 634.276489,191.817276 632.109009,190.915649 
	C630.612549,190.441422 629.733154,190.290283 628.853821,190.139145 
	C628.853821,190.139145 628.934998,190.087662 628.657593,189.878494 
	C621.850281,188.528015 615.320312,187.386703 608.625854,186.216629 
	C608.676819,185.533905 608.772705,184.248535 608.868652,182.963135 
z"/>
<path fill="#E5C26A" opacity="1.000000" stroke="none" 
	d="
M537.768188,259.251465 
	C539.753784,259.253723 541.501587,259.806976 543.251282,259.812775 
	C562.235168,259.875824 581.219604,259.903412 600.203003,259.793610 
	C602.748230,259.778870 605.288635,258.952271 607.870483,258.504456 
	C608.214111,257.770386 608.518677,257.033508 608.823242,256.296631 
	C608.392822,256.213928 607.962402,256.131256 607.531982,256.048584 
	C607.531982,257.671722 607.365906,259.315552 607.564880,260.913910 
	C608.051880,264.825623 606.775940,266.785950 602.498779,266.765015 
	C582.275757,266.665985 562.051819,266.658112 541.828857,266.753296 
	C535.958435,266.780914 537.291260,262.940247 537.768188,259.251465 
z"/>
<path fill="#EAC96D" opacity="1.000000" stroke="none" 
	d="
M1037.480713,209.502365 
	C1039.469604,208.521835 1041.275269,207.866592 1043.085938,207.225998 
	C1048.011108,205.483551 1052.846191,202.674408 1057.885010,202.240265 
	C1067.300171,201.429062 1076.857666,201.607849 1086.307129,202.180511 
	C1090.202759,202.416626 1093.959229,204.771744 1097.808228,206.076584 
	C1098.794800,206.410995 1099.892700,206.416748 1101.375977,206.426331 
	C1102.775513,209.783798 1102.017212,212.321609 1098.016235,213.038055 
	C1094.850098,211.720276 1091.697266,209.316650 1088.515503,209.277740 
	C1076.465820,209.130341 1064.391113,209.500381 1052.362061,210.254898 
	C1049.313477,210.446121 1046.443848,212.890244 1043.405884,214.078918 
	C1041.627563,214.774750 1039.678833,215.035233 1037.806763,215.491547 
	C1037.637817,213.605804 1037.468750,211.720062 1037.480713,209.502365 
z"/>
<path fill="#E4C26A" opacity="1.000000" stroke="none" 
	d="
M780.455078,259.126831 
	C782.084167,259.145813 783.505981,259.794067 784.930298,259.799652 
	C802.667480,259.869415 820.405029,259.856171 838.142456,259.824982 
	C839.455078,259.822662 840.767151,259.518372 842.488464,259.367493 
	C843.694336,266.352386 843.384338,266.717346 836.337097,266.722046 
	C820.095215,266.732880 803.853333,266.728271 787.611450,266.722229 
	C780.232178,266.719452 780.232178,266.711151 780.455078,259.126831 
z"/>
<path fill="#E5C66D" opacity="1.000000" stroke="none" 
	d="
M1217.985352,173.012573 
	C1217.422607,168.594574 1218.431274,165.581238 1223.366455,163.942490 
	C1228.054199,162.385880 1230.822266,163.584915 1233.564087,167.279572 
	C1247.862793,186.546951 1261.671753,206.138000 1270.534302,228.615891 
	C1272.530273,233.678299 1272.543091,239.522675 1273.301514,245.325958 
	C1268.685181,226.496475 1258.000977,210.431137 1247.574097,194.268723 
	C1243.800293,188.419312 1239.500977,182.910721 1235.497681,177.207153 
	C1229.375122,168.484314 1229.363770,168.461380 1219.139404,173.119080 
	C1218.498169,173.133713 1218.244141,173.064301 1217.985352,173.012573 
z"/>
<path fill="#E7C870" opacity="1.000000" stroke="none" 
	d="
M1158.415527,350.017853 
	C1157.194824,349.269714 1155.723999,348.528137 1155.718506,347.775665 
	C1155.588867,330.374237 1155.618408,312.971619 1155.618408,295.275909 
	C1158.148560,295.275909 1160.357300,295.275909 1162.816406,295.275909 
	C1162.816406,313.312683 1162.816406,331.195953 1162.816406,349.697418 
	C1161.610718,349.795227 1160.229248,349.907288 1158.415527,350.017853 
z"/>
<path fill="#E7C267" opacity="1.000000" stroke="none" 
	d="
M1295.769043,143.614487 
	C1294.106445,142.639648 1292.656250,141.489059 1291.206177,140.338440 
	C1292.384521,139.142609 1293.370850,137.616577 1294.770996,136.802246 
	C1308.099121,129.051147 1320.609009,120.351166 1328.334106,106.508041 
	C1330.564697,102.511162 1331.729736,97.919670 1333.607178,93.327103 
	C1334.945435,99.781570 1333.087769,106.046814 1330.092407,111.834999 
	C1323.565308,124.448036 1312.729980,132.871826 1301.081299,140.375824 
	C1299.415161,141.449142 1297.683228,142.420273 1295.769043,143.614487 
z"/>
<path fill="#C8953E" opacity="1.000000" stroke="none" 
	d="
M1007.347107,231.334686 
	C1007.212830,231.911804 1007.151978,232.097610 1007.024353,232.179581 
	C1006.794312,232.327423 1006.524353,232.413116 1006.270996,232.524765 
	C1006.178528,231.208740 1006.005676,229.892731 1006.005188,228.576660 
	C1005.990112,183.389648 1005.985046,138.202652 1006.019775,93.015663 
	C1006.020874,91.586159 1006.457336,90.156975 1007.003662,88.676788 
	C1007.341187,136.049469 1007.365845,183.473022 1007.347107,231.334686 
z"/>
<path fill="#E2C46D" opacity="1.000000" stroke="none" 
	d="
M780.521790,60.603050 
	C792.936768,64.482353 797.042236,70.056099 797.013794,82.593857 
	C796.906372,129.899261 796.785034,177.204651 796.649109,224.509979 
	C796.639038,228.003677 796.471558,231.496918 796.347412,235.376419 
	C796.293213,187.599701 796.316711,139.436768 796.164368,91.274406 
	C796.150452,86.863647 795.321533,82.383919 794.309998,78.067696 
	C793.269165,73.625710 790.506042,69.896103 785.834167,69.156509 
	C780.499451,68.311974 779.382874,65.505569 780.521790,60.603050 
z"/>
<path fill="#DBAF58" opacity="1.000000" stroke="none" 
	d="
M608.631348,183.217422 
	C608.772705,184.248535 608.676819,185.533905 608.625854,186.216629 
	C615.320312,187.386703 621.850281,188.528015 628.681396,189.920227 
	C623.914307,189.431107 618.862305,188.468964 613.767090,188.092255 
	C612.319031,187.985168 609.788513,189.250412 609.372437,190.448349 
	C603.375366,207.714539 595.657471,224.476776 593.338562,243.151764 
	C592.818481,240.589905 591.436584,237.476379 592.177856,234.997879 
	C597.336670,217.748734 602.935974,200.631332 608.631348,183.217422 
z"/>
<path fill="#E1B55C" opacity="1.000000" stroke="none" 
	d="
M1098.092773,213.384918 
	C1102.017212,212.321609 1102.775513,209.783798 1101.542847,206.170166 
	C1107.130005,192.218430 1112.978882,178.372360 1118.866455,164.542755 
	C1119.174072,163.820328 1119.811768,163.238403 1120.499023,162.484894 
	C1120.958862,164.193863 1121.958862,166.314102 1121.358276,167.777176 
	C1115.197388,182.782852 1108.780884,197.683533 1102.425293,212.609131 
	C1101.503052,214.775040 1100.355225,216.269012 1098.092773,213.384918 
z"/>
<path fill="#B79B5B" opacity="1.000000" stroke="none" 
	d="
M345.030334,263.155945 
	C344.710022,264.903320 344.325684,266.274750 343.793793,268.046509 
	C342.845306,259.708405 341.964264,250.976334 341.260620,242.230011 
	C339.904144,225.368973 338.561890,208.505768 337.410034,191.630051 
	C337.119415,187.371857 337.570129,183.063065 337.732178,178.528976 
	C338.952026,191.779205 340.176117,205.273422 341.270996,218.778122 
	C342.260651,230.984909 343.087708,243.204834 344.037689,255.414978 
	C344.229401,257.879120 344.650848,260.325409 345.030334,263.155945 
z"/>
<path fill="#E6C466" opacity="1.000000" stroke="none" 
	d="
M1006.208496,83.731659 
	C1005.643433,70.943802 1011.657227,62.809139 1023.505127,60.764694 
	C1025.239014,65.041328 1024.388550,67.846558 1019.319885,68.825912 
	C1013.286865,69.991615 1010.408020,74.475731 1008.657349,80.698090 
	C1008.223511,82.188766 1008.117859,83.072899 1008.012146,83.957039 
	C1008.012146,83.957039 1008.040100,84.005424 1007.720154,83.950722 
	C1007.002991,83.841232 1006.605713,83.786446 1006.208496,83.731659 
z"/>
<path fill="#C59A5D" opacity="1.000000" stroke="none" 
	d="
M1154.072266,83.943222 
	C1154.395264,85.878754 1154.998657,87.814041 1155.000488,89.749870 
	C1155.039917,134.124130 1155.018188,178.498474 1154.980713,222.872787 
	C1154.979492,224.349380 1154.694214,225.825745 1154.340576,227.668121 
	C1154.081543,203.568283 1154.008911,179.102554 1153.969604,154.636765 
	C1153.935669,133.497147 1153.963867,112.357368 1153.890381,91.217926 
	C1153.882935,89.092064 1153.362549,86.967972 1153.333740,84.398941 
	C1153.587158,83.954826 1154.072266,83.943214 1154.072266,83.943222 
z"/>
<path fill="#E5C76E" opacity="1.000000" stroke="none" 
	d="
M1154.100830,83.509247 
	C1154.072266,83.943214 1153.587158,83.954826 1153.345947,83.980339 
	C1152.207642,81.370911 1151.246338,78.755760 1150.428101,76.096611 
	C1149.042847,71.595177 1145.538940,69.228371 1141.375854,68.661003 
	C1136.520142,67.999268 1136.504395,65.199760 1137.076782,61.223782 
	C1149.687988,61.268314 1153.722046,71.786377 1154.100830,83.509247 
z"/>
<path fill="#BF975B" opacity="1.000000" stroke="none" 
	d="
M941.885254,108.392761 
	C942.109436,107.094719 942.268311,106.272499 942.635376,105.195686 
	C942.889648,145.212173 942.938293,185.483246 942.961609,225.754349 
	C942.962036,226.563736 942.664307,227.373306 942.265991,228.495148 
	C941.957458,188.827881 941.888672,148.848221 941.885254,108.392761 
z"/>
<path fill="#E6C466" opacity="1.000000" stroke="none" 
	d="
M1460.836670,75.931992 
	C1458.241211,67.480568 1462.075684,62.291840 1471.750244,61.779133 
	C1471.826050,63.406929 1471.901978,65.034409 1471.967041,67.117844 
	C1469.093628,68.988129 1466.108765,70.209351 1463.425537,71.907051 
	C1462.270752,72.637680 1461.740967,74.355873 1460.836670,75.931992 
z"/>
<path fill="#E8C96E" opacity="1.000000" stroke="none" 
	d="
M1514.036011,61.114590 
	C1515.754395,61.225182 1517.379395,61.605614 1518.943481,62.158070 
	C1525.041138,64.311783 1526.419189,66.844406 1525.400391,74.453163 
	C1523.143066,72.921989 1521.319214,70.168831 1518.864380,69.380394 
	C1514.526245,67.987137 1512.897827,65.781982 1514.036011,61.114590 
z"/>
<path fill="#E3BC62" opacity="1.000000" stroke="none" 
	d="
M879.888977,75.150711 
	C877.933167,69.249588 878.191895,64.024475 885.096558,61.014763 
	C886.120361,60.568474 886.524658,58.700989 887.202820,57.461857 
	C887.143066,59.279427 886.869690,61.154682 887.098267,62.966610 
	C887.511658,66.242996 886.052612,68.044235 883.394653,69.786476 
	C881.798584,70.832710 881.052490,73.175690 879.888977,75.150711 
z"/>
<path fill="#B9653A" opacity="1.000000" stroke="none" 
	d="
M526.320923,216.806015 
	C526.276794,216.276413 526.496216,215.512894 526.712708,214.436447 
	C528.333252,200.668732 529.273804,187.224533 526.099976,173.442184 
	C530.673157,182.921219 530.142395,193.405273 529.396790,203.809357 
	C529.088684,208.108688 527.558777,212.320480 526.320923,216.806015 
z"/>
<path fill="#CC7B33" opacity="1.000000" stroke="none" 
	d="
M1498.013916,172.366257 
	C1498.027954,171.887360 1498.509888,171.859818 1498.751587,171.846878 
	C1499.042114,191.888016 1499.090942,211.942108 1499.098389,232.458191 
	C1498.706787,231.810654 1498.055176,230.702133 1498.051392,229.591400 
	C1497.986572,210.676163 1498.002075,191.760620 1498.013916,172.366257 
z"/>
<path fill="#CC8535" opacity="1.000000" stroke="none" 
	d="
M1217.975098,173.480042 
	C1218.244141,173.064301 1218.498169,173.133713 1218.895264,173.350723 
	C1219.084229,192.284607 1219.125366,211.088531 1219.138184,230.346222 
	C1218.973022,231.275650 1218.836060,231.751312 1218.699219,232.226990 
	C1218.454468,232.226257 1218.209595,232.225540 1217.964844,232.224808 
	C1217.964844,212.799042 1217.964844,193.373276 1217.975098,173.480042 
z"/>
<path fill="#BF9354" opacity="1.000000" stroke="none" 
	d="
M1432.994629,172.431091 
	C1433.070312,171.965286 1433.461182,171.900589 1433.657227,171.876526 
	C1433.899780,190.058884 1433.954468,208.265320 1433.969971,226.471756 
	C1433.970825,227.439102 1433.640869,228.406754 1433.240967,229.734528 
	C1432.984375,211.028809 1432.951660,191.962860 1432.994629,172.431091 
z"/>
<path fill="#E6C466" opacity="1.000000" stroke="none" 
	d="
M699.960266,72.011276 
	C697.126526,66.366379 698.853333,63.087116 705.654297,61.714073 
	C705.744568,63.370678 705.832458,64.984138 705.928528,67.044678 
	C703.991943,68.913643 702.047241,70.335510 699.960266,72.011276 
z"/>
<path fill="#E5C66D" opacity="1.000000" stroke="none" 
	d="
M614.576843,61.037537 
	C621.520813,64.382195 622.817993,66.975410 620.807983,72.795441 
	C619.884338,71.835403 619.153503,69.975929 617.897034,69.497643 
	C613.706238,67.902428 613.439758,64.935905 614.576843,61.037537 
z"/>
<path fill="#E2C46D" opacity="1.000000" stroke="none" 
	d="
M924.125793,61.291828 
	C929.198120,63.155109 930.839844,66.987785 929.384766,72.528282 
	C928.510132,71.822769 928.015259,70.432571 927.033569,69.809616 
	C923.886536,67.812607 923.461853,64.989792 924.125793,61.291828 
z"/>
<path fill="#B9653A" opacity="1.000000" stroke="none" 
	d="
M525.105591,170.518188 
	C524.472534,169.771439 523.846008,168.699371 523.203735,167.307266 
	C523.829468,168.055771 524.470825,169.124313 525.105591,170.518188 
z"/>
<path fill="#E1B55C" opacity="1.000000" stroke="none" 
	d="
M1121.726318,159.173615 
	C1121.705322,159.133011 1121.681519,158.875046 1121.706543,158.855179 
	C1121.715454,158.860779 1121.720703,158.987091 1121.726318,159.173615 
z"/>
<path fill="#C8953E" opacity="1.000000" stroke="none" 
	d="
M1006.261475,84.003525 
	C1006.605713,83.786446 1007.002991,83.841232 1007.694153,83.960991 
	C1007.993896,84.425507 1007.999695,84.825058 1007.907471,85.509674 
	C1007.311218,85.288300 1006.812866,84.781853 1006.261475,84.003525 
z"/>
<path fill="#C8953E" opacity="1.000000" stroke="none" 
	d="
M1008.249146,83.713211 
	C1008.117859,83.072899 1008.223511,82.188766 1008.565186,81.047165 
	C1008.696167,81.682930 1008.591187,82.576157 1008.249146,83.713211 
z"/>
<path fill="#DBAF58" opacity="1.000000" stroke="none" 
	d="
M629.091187,190.394318 
	C629.733154,190.290283 630.612549,190.441422 631.769409,190.794968 
	C631.140808,190.881409 630.234680,190.765457 629.091187,190.394318 
z"/>
<path fill="#B9653A" opacity="1.000000" stroke="none" 
	d="
M522.103638,164.554184 
	C521.804077,164.434540 521.505737,164.061356 521.189331,163.448151 
	C521.482422,163.572296 521.793640,163.936478 522.103638,164.554184 
z"/>
<path fill="#B9653A" opacity="1.000000" stroke="none" 
	d="
M523.123291,166.555786 
	C522.820496,166.399551 522.531860,165.963547 522.229614,165.258194 
	C522.523193,165.417908 522.830322,165.846954 523.123291,166.555786 
z"/>
<path fill="#B9653A" opacity="1.000000" stroke="none" 
	d="
M526.124146,172.553040 
	C525.798401,172.399094 525.510620,171.963501 525.207764,171.259125 
	C525.515869,171.417358 525.838989,171.844360 526.124146,172.553040 
z"/>
<path fill="#B9653A" opacity="1.000000" stroke="none" 
	d="
M520.134277,161.523834 
	C519.830872,161.418213 519.527161,161.067734 519.210938,160.484650 
	C519.510254,160.594345 519.822083,160.936646 520.134277,161.523834 
z"/>
<path fill="#B9653A" opacity="1.000000" stroke="none" 
	d="
M520.901428,162.571808 
	C520.675720,162.675064 520.490540,162.504303 520.285400,162.095779 
	C520.549255,161.890427 520.774780,162.037003 520.901428,162.571808 
z"/>
<path fill="#C88454" opacity="1.000000" stroke="none" 
	d="
M823.825745,105.288055 
	C824.201721,107.135078 824.320740,109.316582 824.399536,111.791885 
	C824.241150,114.576691 824.021790,117.067642 824.020142,119.558731 
	C823.997559,154.032440 824.004883,188.506149 824.004883,222.979874 
	C824.004883,224.755661 824.004822,226.531433 824.004822,228.307220 
	C823.669434,228.306564 823.334045,228.305923 822.998657,228.305283 
	C822.998657,226.852005 822.998657,225.398727 822.998657,223.945450 
	C822.998657,186.307480 822.990845,148.669510 823.022888,111.031555 
	C823.024475,109.228394 823.378784,107.425529 823.825745,105.288055 
z"/>
<path fill="#BF975B" opacity="1.000000" stroke="none" 
	d="
M942.618835,97.990662 
	C942.359375,98.172668 942.013428,98.150803 941.407349,98.128624 
	C941.608948,98.014465 942.070618,97.900620 942.618835,97.990662 
z"/>
<path fill="#031333" opacity="1.000000" stroke="none" 
	d="
M1266.993774,103.693398 
	C1267.353027,111.665520 1263.321899,117.684822 1258.039062,122.951569 
	C1247.471924,133.486496 1234.524292,139.394897 1219.539185,141.332214 
	C1219.137329,128.654968 1218.810181,116.517899 1219.226807,104.406433 
	C1219.421265,98.753555 1221.055542,93.150215 1222.300293,87.338623 
	C1233.484253,79.827461 1245.044067,80.117737 1256.622314,84.930420 
	C1263.611328,87.835434 1268.681030,97.820625 1266.993774,103.693398 
z"/>
<path fill="#E8C76C" opacity="1.000000" stroke="none" 
	d="
M1266.933594,103.600662 
	C1268.681030,97.820625 1263.611328,87.835434 1256.622314,84.930420 
	C1245.044067,80.117737 1233.484253,79.827461 1222.035889,87.539886 
	C1220.722412,88.230598 1219.936401,88.534233 1219.150513,88.837875 
	C1219.242676,82.740448 1221.938354,77.948677 1228.204956,76.869072 
	C1235.750977,75.569031 1243.717041,75.082497 1251.293945,75.985001 
	C1261.562012,77.208076 1271.416748,89.169914 1266.933594,103.600662 
z"/>
<path fill="#CC8535" opacity="1.000000" stroke="none" 
	d="
M1219.179810,89.299232 
	C1219.936401,88.534233 1220.722412,88.230598 1221.772705,87.725693 
	C1221.055542,93.150215 1219.421265,98.753555 1219.226807,104.406433 
	C1218.810181,116.517899 1219.137329,128.654968 1219.146240,141.222015 
	C1218.745361,140.275162 1218.032471,138.890274 1218.021851,137.500061 
	C1217.932129,125.702103 1217.866089,113.901718 1218.027588,102.105270 
	C1218.083862,97.985756 1218.796265,93.875229 1219.179810,89.299232 
z"/>
<path fill="#071433" opacity="1.000000" stroke="none" 
	d="
M660.768982,172.867310 
	C648.346069,166.015610 635.626099,160.038391 620.744812,159.009323 
	C622.624084,151.888123 624.767700,145.114624 627.105225,138.408722 
	C631.029724,127.150017 635.077576,115.934326 639.320679,104.996277 
	C646.634949,127.817108 653.701965,150.342209 660.768982,172.867310 
z"/>
<path fill="#DCC16B" opacity="1.000000" stroke="none" 
	d="
M660.918091,173.149567 
	C653.701965,150.342209 646.634949,127.817108 639.214844,104.774857 
	C637.250061,105.854408 635.638245,107.451103 634.026489,109.047791 
	C635.306885,105.180603 636.587280,101.313423 637.867676,97.446243 
	C638.365295,97.414955 638.862915,97.383675 639.360596,97.352394 
	C640.804138,101.586235 642.331421,105.793648 643.676819,110.058441 
	C649.906006,129.804153 656.116943,149.555862 662.204590,169.345352 
	C662.588135,170.592331 665.095093,173.132187 660.918091,173.149567 
z"/>
<path fill="#DFB55C" opacity="1.000000" stroke="none" 
	d="
M633.852844,109.362518 
	C635.638245,107.451103 637.250061,105.854408 638.967651,104.479134 
	C635.077576,115.934326 631.029724,127.150017 627.105225,138.408722 
	C624.767700,145.114624 622.624084,151.888123 620.244873,158.948059 
	C615.612488,159.881973 617.561401,156.834259 618.072754,155.252396 
	C620.976624,146.269348 624.064941,137.345520 627.131409,128.415573 
	C629.280212,122.157875 631.494263,115.922562 633.852844,109.362518 
z"/>
<path fill="#021434" opacity="1.000000" stroke="none" 
	d="
M633.071045,325.491119 
	C639.427979,327.475433 641.451782,329.851807 641.360718,334.908417 
	C641.271729,339.850006 638.947021,342.825806 633.238586,344.077423 
	C629.437622,344.910828 625.448730,344.887421 620.808167,345.315338 
	C620.808167,341.472748 620.808167,338.361359 620.808167,335.249969 
	C620.808167,332.090088 620.808167,328.930176 620.808167,325.342651 
	C624.866577,325.342651 628.770752,325.342651 633.071045,325.491119 
z"/>
<path fill="#031534" opacity="1.000000" stroke="none" 
	d="
M628.728577,300.683044 
	C636.107605,301.530457 638.557373,304.319855 637.891174,310.608704 
	C637.119263,317.895569 632.370178,320.299957 621.189697,318.896515 
	C621.097473,317.835449 620.923706,316.717834 620.916382,315.599152 
	C620.885132,310.827362 620.903076,306.055237 620.903076,300.673218 
	C623.756897,300.673218 626.015625,300.673218 628.728577,300.683044 
z"/>
<path fill="#021434" opacity="1.000000" stroke="none" 
	d="
M848.749756,318.513275 
	C848.309387,323.556152 848.363586,328.303040 847.222900,332.742950 
	C845.346558,340.046051 840.225037,343.843964 832.739624,344.216492 
	C828.302734,344.437286 823.845947,344.256897 819.109131,344.256897 
	C819.109131,329.580109 819.109131,315.514984 819.109131,301.492004 
	C838.047424,298.787048 846.782288,301.449524 848.749756,318.513275 
z"/>
</svg>